<svg width="112" height="30" viewBox="0 0 112 30" fill="none" xmlns="http://www.w3.org/2000/svg">
<path d="M17.32 19.36H24.84C24.44 21.24 22 21.8 18 21.8C11.88 21.8 10.8 18.76 10.8 15.36C10.8 12 11.84 9.4 18 9.4C22.4 9.4 24.44 10.72 24.84 12.16H35.48C35.04 4.52 29.2 0.599998 18 0.599998C6.48 0.599998 0.4 5.24 0.4 14.96C0.4 24.72 6.48 29.4 16.8 29.4C22.68 29.4 26.36 27.72 28.72 24.96L29.48 29H35.48V13.76H17.32V19.36ZM72.6184 11.72C72.6184 5.48 68.2584 0.999998 61.8984 0.999998H39.8984V29H50.2984V22.44H56.4184L60.2984 29H72.6184L67.6584 20.96C70.7384 19.16 72.6184 15.8 72.6184 11.72ZM50.2984 9.8H59.8984C60.9384 9.8 62.2184 9.8 62.2184 11.72C62.2184 13.64 60.9384 13.64 59.8984 13.64H50.2984V9.8ZM76.2141 19.12C76.2141 27.44 82.6141 29.4 94.0941 29.4C105.574 29.4 111.974 27.44 111.974 19.72C111.974 12.4 105.134 11.64 94.0941 11.2C88.0141 10.96 87.0141 11 87.0141 9.92C87.0141 8.84 88.0141 8.6 92.8941 8.6C97.9741 8.6 100.374 8.92 100.374 10.4H110.774C110.774 3.24 104.614 0.599998 93.6941 0.599998C82.6541 0.599998 76.6141 3.24 76.6141 9.4C76.6141 15.92 81.4541 18 94.0941 18.4C100.654 18.6 101.574 18.76 101.574 19.96C101.574 21 100.654 21.4 94.4941 21.4C87.8941 21.4 86.6141 20.48 86.6141 19.12H76.2141Z" fill="white"/>
</svg>
